<svg xmlns="http://www.w3.org/2000/svg" id="uuid-02cbfad9-1b32-4bda-bb46-d27781c98d3a" width="42.33cm" height="42.33cm" data-name="Glyph_only" viewBox="0 0 1200 1200"><defs><style>.uuid-1c84bc25-0a33-42ca-8106-af1322f02059{fill:#050606}</style></defs><path d="M999.91,605.62c0-153.45-124.83-278.28-278.28-278.28-35.43,0-69.39,6.86-100.7,19.2v-143.19h-18.55c-153.45,0-278.28,124.83-278.28,278.28,0,35.4,6.86,69.34,19.18,100.64l-143.17.06v18.55c0,153.45,124.83,278.28,278.28,278.28,35.43,0,69.4-6.86,100.72-19.2v143.2h18.55c153.46,0,278.28-124.83,278.28-278.28,0-35.43-6.86-69.39-19.2-100.7h143.18v-18.55ZM616.2,965.36v-123.54h0v-43.83c-11.66,8.22-24.08,15.36-37.1,21.44-30.76,14.36-64.83,22.62-100.72,22.62-126.75,0-230.96-98.27-240.47-222.63l264.5-.06v-37.1h-118.62c-14.34-30.74-22.59-64.78-22.59-100.64,0-126.75,98.27-230.96,222.63-240.49v242.45l18.21.33c79.47,1.46,149.75,42.19,192.72,103.16,8.22,11.67,15.37,24.08,21.45,37.1,14.36,30.76,22.63,64.82,22.63,100.7,0,126.75-98.27,230.96-222.63,240.49ZM838.59,587.06c-44.53-77.03-124.7-131.48-217.66-139.32v-60.69c30.76-14.36,64.82-22.62,100.7-22.62,126.75,0,230.96,98.27,240.47,222.63h-123.51Z" class="uuid-1c84bc25-0a33-42ca-8106-af1322f02059"/></svg>