<svg xmlns="http://www.w3.org/2000/svg" id="uuid-70e0df70-d6a3-4069-a2fc-5784ff4600e6" width="42.33cm" height="42.33cm" data-name="Glyph_only" viewBox="0 0 1200 1200"><defs><style>.uuid-ac67438a-9b22-470e-9b13-2b20379d31f7{fill:#fff}</style></defs><path d="M597.64,1001.15c152.34,0,276.28-123.94,276.28-276.28,0-34.23-6.41-67.86-19.06-99.96l-1.08-2.73h144.12v-16.55c0-152.34-123.94-276.28-276.28-276.28-34.24,0-67.87,6.41-99.96,19.06l-2.73,1.08v-144.13h-16.55c-152.34,0-276.28,123.94-276.28,276.28,0,34.21,6.41,67.82,19.04,99.9l1.08,2.73-144.11.06v16.55c0,152.34,123.94,276.28,276.28,276.28,34.24,0,67.88-6.41,99.98-19.06l2.73-1.08v144.13h16.55ZM618.93,385.78l1.15-.54c32.42-15.13,66.59-22.8,101.54-22.8,61.59,0,120.39,23.16,165.56,65.22,44.94,41.83,72.25,98.39,76.9,159.26l.16,2.15h-126.82l-.58-1c-45.7-79.06-126.49-130.77-216.1-138.33l-1.83-.15v-63.8ZM579.94,821.24c-32.43,15.13-66.6,22.81-101.56,22.81-61.59,0-120.39-23.16-165.56-65.21-44.94-41.84-72.25-98.39-76.9-159.26l-.16-2.15h2.16s262.5-.06,262.5-.06v-33.1h-117.89l-.54-1.15c-15.12-32.41-22.78-66.55-22.78-101.48,0-61.59,23.16-120.39,65.22-165.57,41.83-44.94,98.39-72.26,159.26-76.92l2.15-.17v242.64l16.24.29c38.61.71,76.98,10.91,110.97,29.51,32.84,17.97,61.66,43.73,83.35,74.5,8.18,11.6,15.46,24.19,21.63,37.41,15.14,32.43,22.81,66.59,22.81,101.54,0,61.59-23.16,120.39-65.22,165.57-41.83,44.94-98.39,72.26-159.26,76.92l-2.15.17v-165.71c-10.72,7.29-22.23,13.82-34.26,19.44Z" class="uuid-ac67438a-9b22-470e-9b13-2b20379d31f7"/></svg>