<?xml version="1.0" encoding="UTF-8"?>
<svg id="uuid-23b312ce-8c7d-453c-b698-14d6c67ef98d" data-name="lanscape" xmlns="http://www.w3.org/2000/svg" width="42.33cm" height="42.33cm" viewBox="0 0 1200 1200">
  <defs>
    <style>
      .uuid-0dbdeebf-e8e5-4d34-a92c-55773e0bfba1 {
        fill: #231f20;
      }

      .uuid-0eeb2ed5-b483-4157-bd6a-2bdcea9e116c {
        fill: #050606;
      }
    </style>
  </defs>
  <g>
    <g>
      <path class="uuid-0dbdeebf-e8e5-4d34-a92c-55773e0bfba1" d="M582.65,545.87c-3.05-4.82-7.34-8.45-12.86-10.89-5.53-2.44-12.04-3.66-19.55-3.66h-38.68c-1.12,0-1.98.33-2.58.99-.62.66-.92,1.55-.92,2.66v99.42c0,1.02.3,1.86.92,2.52.59.66,1.46.99,2.58.99h8.08c1.12,0,1.98-.33,2.65-.99.67-.66.99-1.5.99-2.52v-38.06h26.96c7.51,0,14.03-1.21,19.55-3.66,5.53-2.43,9.81-6.03,12.86-10.8,3.05-4.77,4.58-10.75,4.58-17.97s-1.54-13.22-4.58-18.04ZM566.37,578.52c-3.77,3.36-9.39,5.03-16.9,5.03h-26.34v-39.44h26.34c7.71,0,13.38,1.73,17.05,5.18,3.67,3.46,5.48,8.33,5.48,14.62s-1.86,11.26-5.63,14.61Z"/>
      <path class="uuid-0dbdeebf-e8e5-4d34-a92c-55773e0bfba1" d="M647.75,559.73c-.67-.66-1.49-.99-2.53-.99h-5.92c-5.08,0-9.39.87-12.94,2.59-3.57,1.72-6.34,4.31-8.38,7.77v-6.7c0-1.02-.37-1.88-1.07-2.59-.72-.71-1.59-1.07-2.6-1.07h-6.99c-1.02,0-1.86.36-2.53,1.07-.64.71-.97,1.57-.97,2.59v72.01c0,1.02.32,1.86.97,2.52.67.66,1.51.99,2.53.99h7.46c1.02,0,1.88-.33,2.58-.99.72-.66,1.07-1.5,1.07-2.52v-44.77c0-5.48,1.59-9.81,4.73-13.01,3.12-3.2,7.46-4.8,12.94-4.8h9.12c1.04,0,1.86-.31,2.53-.92.64-.61.99-1.42.99-2.44v-6.23c0-1.02-.35-1.86-.99-2.52Z"/>
      <path class="uuid-0dbdeebf-e8e5-4d34-a92c-55773e0bfba1" d="M728.36,591.77c-.3-6.79-1.86-12.79-4.63-17.95-2.8-5.18-6.79-9.24-11.94-12.19-5.2-2.94-11.6-4.41-19.2-4.41s-14,1.47-19.18,4.41c-5.18,2.95-9.14,7.01-11.94,12.19-2.8,5.17-4.34,11.16-4.63,17.95-.12,1.64-.17,3.79-.17,6.48s.05,4.89.17,6.62c.3,6.7,1.81,12.66,4.56,17.89,2.73,5.23,6.69,9.32,11.87,12.25,5.18,2.95,11.62,4.42,19.33,4.42s14.17-1.47,19.35-4.42c5.15-2.94,9.12-7.03,11.87-12.25,2.75-5.23,4.26-11.19,4.56-17.89.1-1.72.15-3.93.15-6.62s-.05-4.84-.15-6.48ZM713.74,604.11c-.3,7.71-2.33,13.58-6.07,17.58-3.77,4.01-8.8,6.01-15.09,6.01s-11.32-1.99-15.14-6.01c-3.82-4-5.8-9.88-6.02-17.58-.1-1.52-.15-3.46-.15-5.79s.05-4.26.15-5.79c.22-7.72,2.21-13.58,6.02-17.58,3.82-4.01,8.85-6.02,15.14-6.02s11.32,2.01,15.09,6.02c3.74,4,5.77,9.86,6.07,17.58.12,1.52.17,3.46.17,5.79s-.05,4.26-.17,5.79Z"/>
      <path class="uuid-0dbdeebf-e8e5-4d34-a92c-55773e0bfba1" d="M819.26,593.14c-.2-4.87-.97-9.44-2.28-13.7-1.31-4.26-3.27-8.07-5.87-11.41-2.58-3.36-5.87-6-9.89-7.92-4.01-1.93-8.85-2.9-14.55-2.9-6.1,0-11.15,1.12-15.22,3.35-4.06,2.24-7.31,5.03-9.76,8.38v-6.69c0-1.02-.32-1.86-.99-2.52-.64-.66-1.49-.99-2.5-.99h-7.01c-.99,0-1.83.33-2.5.99-.67.66-.99,1.5-.99,2.52v101.09c0,1.02.32,1.85.99,2.52.67.66,1.51.98,2.5.98h7.48c.99,0,1.83-.32,2.43-.98.59-.67.92-1.5.92-2.52v-35.32c2.53,3.25,5.8,5.96,9.81,8.14,4.01,2.19,8.95,3.28,14.84,3.28s10.53-.99,14.55-2.97c4.01-1.98,7.31-4.62,9.89-7.92,2.6-3.3,4.56-7.1,5.87-11.42,1.31-4.31,2.08-8.85,2.28-13.62.1-1.62.15-3.36.15-5.18s-.05-3.56-.15-5.18ZM804.64,602.73c-.2,4.26-.97,8.25-2.28,11.96-1.31,3.7-3.47,6.7-6.47,8.98s-7.14,3.42-12.42,3.42c-4.78,0-8.72-1.12-11.87-3.35-3.15-2.23-5.5-5.08-7.09-8.52-1.56-3.46-2.4-6.95-2.5-10.51-.1-1.72-.15-3.7-.15-5.94s.05-4.16.15-5.79c.2-3.75,1.04-7.43,2.5-11.04,1.49-3.61,3.77-6.57,6.86-8.91,3.1-2.33,7.11-3.51,12.09-3.51,5.28,0,9.42,1.15,12.42,3.43s5.15,5.28,6.47,8.98c1.31,3.7,2.08,7.68,2.28,11.96.1,2.94.1,5.89,0,8.82Z"/>
      <path class="uuid-0dbdeebf-e8e5-4d34-a92c-55773e0bfba1" d="M901.16,575.95c-2.73-6-6.72-10.61-11.94-13.86-5.23-3.25-11.7-4.87-19.4-4.87-6.91,0-12.91,1.47-18.04,4.41-5.13,2.95-9.17,7.14-12.12,12.56-2.95,5.44-4.61,11.76-5.01,18.96-.12,1.33-.17,3.02-.17,5.1s.05,3.78.17,5.09c.59,11.18,3.99,19.97,10.18,26.42,6.2,6.46,14.57,9.68,25.13,9.68,5.18,0,9.81-.69,13.93-2.06,4.11-1.38,7.56-3.12,10.36-5.25,2.8-2.13,4.93-4.29,6.47-6.47,1.54-2.18,2.33-4.04,2.43-5.56.1-1.02-.17-1.8-.84-2.35-.64-.56-1.44-.84-2.35-.84h-7.46c-1.11,0-1.93.12-2.43.38-.52.25-1.21.99-2.13,2.21-.52.82-1.54,1.91-3.05,3.27-1.51,1.38-3.49,2.61-5.95,3.73-2.43,1.12-5.48,1.67-9.12,1.67-4.16,0-7.81-1.12-10.88-3.35-3.12-2.23-5.48-5.15-7.09-8.76-1.64-3.59-2.55-7.48-2.75-11.65v-1.36h52.68c1.02,0,1.86-.31,2.5-.92.67-.61.99-1.47.99-2.59v-2.59c0-8.02-1.36-15.02-4.11-21ZM890.8,592.54h-41.71v-.46c0-4.57.82-8.62,2.45-12.18,1.61-3.56,3.96-6.37,7.06-8.45,3.1-2.08,6.81-3.12,11.2-3.12s8.1,1.04,11.25,3.12c3.15,2.08,5.58,4.89,7.24,8.45,1.69,3.56,2.5,7.61,2.5,12.18v.46Z"/>
      <path class="uuid-0dbdeebf-e8e5-4d34-a92c-55773e0bfba1" d="M936.94,530.8c-.59-.66-1.46-.99-2.58-.99h-7.16c-1.02,0-1.86.33-2.5.99-.67.67-.99,1.5-.99,2.52v101.09c0,1.02.32,1.86.99,2.52.64.66,1.49.99,2.5.99h7.16c1.12,0,1.98-.33,2.58-.99.62-.66.92-1.5.92-2.52v-101.09c0-1.02-.3-1.85-.92-2.52Z"/>
      <path class="uuid-0dbdeebf-e8e5-4d34-a92c-55773e0bfba1" d="M973.94,530.8c-.59-.66-1.46-.99-2.58-.99h-7.16c-1.02,0-1.86.33-2.5.99-.67.67-.99,1.5-.99,2.52v101.09c0,1.02.32,1.86.99,2.52.64.66,1.49.99,2.5.99h7.16c1.12,0,1.98-.33,2.58-.99.62-.66.92-1.5.92-2.52v-101.09c0-1.02-.3-1.85-.92-2.52Z"/>
      <path class="uuid-0dbdeebf-e8e5-4d34-a92c-55773e0bfba1" d="M1060.42,575.95c-2.75-6-6.72-10.61-11.94-13.86-5.23-3.25-11.7-4.87-19.4-4.87-6.91,0-12.94,1.47-18.04,4.41-5.15,2.95-9.17,7.14-12.12,12.56-2.95,5.44-4.63,11.76-5.03,18.96-.1,1.33-.15,3.02-.15,5.1s.05,3.78.15,5.09c.62,11.18,4.01,19.97,10.21,26.42,6.2,6.46,14.57,9.68,25.13,9.68,5.15,0,9.81-.69,13.93-2.06,4.11-1.38,7.56-3.12,10.36-5.25,2.78-2.13,4.93-4.29,6.47-6.47,1.51-2.18,2.33-4.04,2.43-5.56.1-1.02-.17-1.8-.84-2.35-.67-.56-1.44-.84-2.35-.84h-7.46c-1.12,0-1.93.12-2.45.38-.5.25-1.19.99-2.13,2.21-.5.82-1.51,1.91-3.02,3.27-1.54,1.38-3.52,2.61-5.95,3.73-2.43,1.12-5.48,1.67-9.12,1.67-4.16,0-7.81-1.12-10.9-3.35-3.1-2.23-5.45-5.15-7.09-8.76-1.61-3.59-2.53-7.48-2.73-11.65v-1.36h52.68c.99,0,1.83-.31,2.5-.92.67-.61.99-1.47.99-2.59v-2.59c0-8.02-1.36-15.02-4.11-21ZM1050.06,592.54h-41.71v-.46c0-4.57.79-8.62,2.43-12.18,1.64-3.56,3.99-6.37,7.09-8.45,3.1-2.08,6.81-3.12,11.2-3.12s8.1,1.04,11.25,3.12,5.55,4.89,7.24,8.45,2.5,7.61,2.5,12.18v.46Z"/>
      <path class="uuid-0dbdeebf-e8e5-4d34-a92c-55773e0bfba1" d="M1126.73,559.73c-.67-.66-1.51-.99-2.53-.99h-5.92c-5.08,0-9.39.87-12.94,2.59-3.57,1.72-6.34,4.31-8.38,7.77v-6.7c0-1.02-.37-1.88-1.09-2.59-.69-.71-1.56-1.07-2.58-1.07h-6.99c-1.04,0-1.86.36-2.53,1.07-.64.71-.99,1.57-.99,2.59v72.01c0,1.02.35,1.86.99,2.52.67.66,1.49.99,2.53.99h7.43c1.04,0,1.88-.33,2.6-.99.72-.66,1.07-1.5,1.07-2.52v-44.77c0-5.48,1.59-9.81,4.71-13.01,3.15-3.2,7.48-4.8,12.96-4.8h9.12c1.02,0,1.86-.31,2.53-.92.64-.61.99-1.42.99-2.44v-6.23c0-1.02-.35-1.86-.99-2.52Z"/>
    </g>
    <path class="uuid-0eeb2ed5-b483-4157-bd6a-2bdcea9e116c" d="M425.58,599.36c0-67.79-55.14-122.93-122.93-122.93-15.65,0-30.65,3.03-44.48,8.48v-63.25h-8.2c-67.79,0-122.93,55.14-122.93,122.93,0,15.64,3.03,30.63,8.47,44.45l-63.24.03v8.2c0,67.79,55.14,122.93,122.93,122.93,15.65,0,30.66-3.03,44.49-8.48v63.26h8.2c67.79,0,122.93-55.14,122.93-122.93,0-15.65-3.03-30.65-8.48-44.48h63.25v-8.2ZM256.08,758.28v-54.57h0v-19.36c-5.15,3.63-10.64,6.79-16.39,9.47-13.59,6.34-28.64,9.99-44.49,9.99-55.99,0-102.02-43.41-106.23-98.34l116.84-.03v-16.39h-52.4c-6.33-13.58-9.98-28.61-9.98-44.45,0-55.99,43.41-102.02,98.34-106.23v107.1l8.04.14c35.1.64,66.15,18.64,85.13,45.57,3.63,5.15,6.79,10.64,9.48,16.39,6.34,13.59,9.99,28.63,9.99,44.48,0,55.99-43.41,102.02-98.34,106.23ZM354.32,591.17c-19.67-34.03-55.08-58.08-96.15-61.54v-26.81c13.59-6.34,28.63-9.99,44.48-9.99,55.99,0,102.02,43.41,106.23,98.34h-54.56Z"/>
  </g>
  <g>
    <g>
      <path class="uuid-0dbdeebf-e8e5-4d34-a92c-55773e0bfba1" d="M511.56,637.91c-1.12,0-1.98-.33-2.58-.99-.62-.66-.92-1.5-.92-2.52v-99.42c0-1.12.3-2.01.92-2.66.59-.66,1.46-.99,2.58-.99h38.68c7.51,0,14.03,1.21,19.55,3.66,5.53,2.44,9.81,6.07,12.86,10.89,3.05,4.82,4.58,10.83,4.58,18.04s-1.54,13.2-4.58,17.97c-3.05,4.77-7.34,8.38-12.86,10.8-5.53,2.44-12.04,3.66-19.55,3.66h-26.96v38.06c0,1.02-.32,1.86-.99,2.52-.67.66-1.54.99-2.65.99h-8.08ZM523.13,583.55h26.34c7.51,0,13.13-1.67,16.9-5.03,3.77-3.35,5.63-8.21,5.63-14.61s-1.81-11.16-5.48-14.62c-3.67-3.44-9.34-5.18-17.05-5.18h-26.34v39.44Z"/>
      <path class="uuid-0dbdeebf-e8e5-4d34-a92c-55773e0bfba1" d="M607.33,637.91c-1.02,0-1.86-.33-2.53-.99-.64-.66-.97-1.5-.97-2.52v-72.01c0-1.02.32-1.88.97-2.59.67-.71,1.51-1.07,2.53-1.07h6.99c1.02,0,1.88.36,2.6,1.07.69.71,1.07,1.57,1.07,2.59v6.7c2.03-3.46,4.81-6.05,8.38-7.77,3.54-1.72,7.86-2.59,12.94-2.59h5.92c1.04,0,1.86.33,2.53.99.64.66.99,1.5.99,2.52v6.23c0,1.02-.35,1.83-.99,2.44-.67.61-1.49.92-2.53.92h-9.12c-5.48,0-9.81,1.6-12.94,4.8-3.15,3.2-4.73,7.53-4.73,13.01v44.77c0,1.02-.35,1.86-1.07,2.52-.69.66-1.56.99-2.58.99h-7.46Z"/>
      <path class="uuid-0dbdeebf-e8e5-4d34-a92c-55773e0bfba1" d="M692.58,639.43c-7.71,0-14.15-1.47-19.33-4.42-5.18-2.94-9.14-7.03-11.87-12.25-2.75-5.23-4.26-11.19-4.56-17.89-.12-1.72-.17-3.93-.17-6.62s.05-4.84.17-6.48c.3-6.79,1.83-12.79,4.63-17.95,2.8-5.18,6.77-9.24,11.94-12.19,5.18-2.94,11.57-4.41,19.18-4.41s14,1.47,19.2,4.41c5.15,2.95,9.14,7.01,11.94,12.19,2.78,5.17,4.34,11.16,4.63,17.95.1,1.64.15,3.79.15,6.48s-.05,4.89-.15,6.62c-.3,6.7-1.81,12.66-4.56,17.89-2.75,5.23-6.72,9.32-11.87,12.25-5.18,2.95-11.65,4.42-19.35,4.42ZM692.58,627.7c6.29,0,11.32-1.99,15.09-6.01,3.74-4,5.77-9.88,6.07-17.58.12-1.52.17-3.46.17-5.79s-.05-4.26-.17-5.79c-.3-7.72-2.33-13.58-6.07-17.58-3.77-4.01-8.8-6.02-15.09-6.02s-11.32,2.01-15.14,6.02c-3.82,4-5.8,9.86-6.02,17.58-.1,1.52-.15,3.46-.15,5.79s.05,4.26.15,5.79c.22,7.71,2.21,13.58,6.02,17.58,3.82,4.01,8.85,6.01,15.14,6.01Z"/>
      <path class="uuid-0dbdeebf-e8e5-4d34-a92c-55773e0bfba1" d="M751.18,666.83c-.99,0-1.83-.32-2.5-.98-.67-.67-.99-1.5-.99-2.52v-101.09c0-1.02.32-1.86.99-2.52.67-.66,1.51-.99,2.5-.99h7.01c1.02,0,1.86.33,2.5.99.67.66.99,1.5.99,2.52v6.69c2.45-3.35,5.7-6.13,9.76-8.38,4.06-2.23,9.12-3.35,15.22-3.35,5.7,0,10.53.97,14.55,2.9,4.01,1.92,7.31,4.56,9.89,7.92,2.6,3.35,4.56,7.15,5.87,11.41,1.31,4.26,2.08,8.83,2.28,13.7.1,1.62.15,3.35.15,5.18s-.05,3.56-.15,5.18c-.2,4.77-.97,9.31-2.28,13.62-1.31,4.32-3.27,8.13-5.87,11.42-2.58,3.3-5.87,5.93-9.89,7.92-4.01,1.98-8.85,2.97-14.55,2.97s-10.83-1.09-14.84-3.28c-4.01-2.18-7.29-4.89-9.81-8.14v35.32c0,1.02-.32,1.85-.92,2.52-.59.66-1.44.98-2.43.98h-7.48ZM783.47,627.09c5.28,0,9.42-1.14,12.42-3.42,3-2.28,5.15-5.28,6.47-8.98,1.31-3.7,2.08-7.69,2.28-11.96.1-2.94.1-5.89,0-8.82-.2-4.27-.97-8.25-2.28-11.96-1.31-3.7-3.47-6.7-6.47-8.98-3-2.28-7.14-3.43-12.42-3.43-4.98,0-9,1.18-12.09,3.51-3.1,2.34-5.38,5.3-6.86,8.91-1.46,3.61-2.3,7.29-2.5,11.04-.1,1.62-.15,3.56-.15,5.79s.05,4.21.15,5.93c.1,3.56.94,7.05,2.5,10.51,1.59,3.44,3.94,6.29,7.09,8.52,3.15,2.23,7.09,3.35,11.87,3.35Z"/>
      <path class="uuid-0dbdeebf-e8e5-4d34-a92c-55773e0bfba1" d="M869.96,639.43c-10.56,0-18.93-3.22-25.13-9.68-6.2-6.44-9.59-15.24-10.18-26.42-.12-1.31-.17-3.01-.17-5.09s.05-3.78.17-5.1c.4-7.2,2.06-13.52,5.01-18.96,2.95-5.43,6.99-9.61,12.12-12.56,5.13-2.94,11.13-4.41,18.04-4.41,7.71,0,14.17,1.62,19.4,4.87,5.23,3.26,9.22,7.87,11.94,13.86,2.75,5.98,4.11,12.98,4.11,21v2.59c0,1.12-.32,1.98-.99,2.59-.64.61-1.49.92-2.5.92h-52.68v1.36c.2,4.16,1.12,8.05,2.75,11.65,1.61,3.61,3.96,6.53,7.09,8.76,3.07,2.23,6.72,3.35,10.88,3.35,3.64,0,6.69-.56,9.12-1.67,2.45-1.12,4.44-2.35,5.95-3.73,1.51-1.36,2.53-2.45,3.05-3.27.92-1.21,1.61-1.96,2.13-2.21.5-.26,1.31-.38,2.43-.38h7.46c.92,0,1.71.28,2.35.84.67.56.94,1.34.84,2.35-.1,1.52-.89,3.38-2.43,5.56s-3.67,4.34-6.47,6.47c-2.8,2.13-6.24,3.88-10.36,5.25-4.11,1.36-8.75,2.06-13.93,2.06ZM849.09,592.54h41.71v-.46c0-4.57-.82-8.62-2.5-12.18-1.66-3.56-4.09-6.37-7.24-8.45-3.15-2.08-6.89-3.12-11.25-3.12s-8.1,1.04-11.2,3.12c-3.1,2.08-5.45,4.89-7.06,8.45-1.64,3.56-2.45,7.61-2.45,12.18v.46Z"/>
      <path class="uuid-0dbdeebf-e8e5-4d34-a92c-55773e0bfba1" d="M927.2,637.91c-1.02,0-1.86-.33-2.5-.99-.67-.66-.99-1.5-.99-2.52v-101.09c0-1.02.32-1.85.99-2.52.64-.66,1.49-.99,2.5-.99h7.16c1.12,0,1.98.33,2.58.99.62.67.92,1.5.92,2.52v101.09c0,1.02-.3,1.86-.92,2.52-.59.66-1.46.99-2.58.99h-7.16Z"/>
      <path class="uuid-0dbdeebf-e8e5-4d34-a92c-55773e0bfba1" d="M964.2,637.91c-1.02,0-1.86-.33-2.5-.99-.67-.66-.99-1.5-.99-2.52v-101.09c0-1.02.32-1.85.99-2.52.64-.66,1.49-.99,2.5-.99h7.16c1.12,0,1.98.33,2.58.99.62.67.92,1.5.92,2.52v101.09c0,1.02-.3,1.86-.92,2.52-.59.66-1.46.99-2.58.99h-7.16Z"/>
      <path class="uuid-0dbdeebf-e8e5-4d34-a92c-55773e0bfba1" d="M1029.22,639.43c-10.56,0-18.93-3.22-25.13-9.68-6.2-6.44-9.59-15.24-10.21-26.42-.1-1.31-.15-3.01-.15-5.09s.05-3.78.15-5.1c.4-7.2,2.08-13.52,5.03-18.96,2.95-5.43,6.96-9.61,12.12-12.56,5.1-2.94,11.13-4.41,18.04-4.41,7.71,0,14.17,1.62,19.4,4.87,5.23,3.26,9.19,7.87,11.94,13.86,2.75,5.98,4.11,12.98,4.11,21v2.59c0,1.12-.32,1.98-.99,2.59s-1.51.92-2.5.92h-52.68v1.36c.2,4.16,1.12,8.05,2.73,11.65,1.64,3.61,3.99,6.53,7.09,8.76,3.1,2.23,6.74,3.35,10.9,3.35,3.64,0,6.69-.56,9.12-1.67s4.41-2.35,5.95-3.73c1.51-1.36,2.53-2.45,3.02-3.27.94-1.21,1.64-1.96,2.13-2.21.52-.26,1.34-.38,2.45-.38h7.46c.92,0,1.69.28,2.35.84s.94,1.34.84,2.35c-.1,1.52-.92,3.38-2.43,5.56-1.54,2.18-3.69,4.34-6.47,6.47-2.8,2.13-6.24,3.88-10.36,5.25-4.11,1.36-8.77,2.06-13.93,2.06ZM1008.36,592.54h41.71v-.46c0-4.57-.82-8.62-2.5-12.18-1.69-3.56-4.09-6.37-7.24-8.45s-6.89-3.12-11.25-3.12-8.1,1.04-11.2,3.12-5.45,4.89-7.09,8.45c-1.64,3.56-2.43,7.61-2.43,12.18v.46Z"/>
      <path class="uuid-0dbdeebf-e8e5-4d34-a92c-55773e0bfba1" d="M1086.32,637.91c-1.04,0-1.86-.33-2.53-.99-.64-.66-.99-1.5-.99-2.52v-72.01c0-1.02.35-1.88.99-2.59.67-.71,1.49-1.07,2.53-1.07h6.99c1.02,0,1.88.36,2.58,1.07.72.71,1.09,1.57,1.09,2.59v6.7c2.03-3.46,4.81-6.05,8.38-7.77,3.54-1.72,7.86-2.59,12.94-2.59h5.92c1.02,0,1.86.33,2.53.99.64.66.99,1.5.99,2.52v6.23c0,1.02-.35,1.83-.99,2.44-.67.61-1.51.92-2.53.92h-9.12c-5.48,0-9.81,1.6-12.96,4.8-3.12,3.2-4.71,7.53-4.71,13.01v44.77c0,1.02-.35,1.86-1.07,2.52s-1.56.99-2.6.99h-7.43Z"/>
    </g>
    <path class="uuid-0eeb2ed5-b483-4157-bd6a-2bdcea9e116c" d="M425.58,599.36c0-67.79-55.14-122.93-122.93-122.93-15.65,0-30.65,3.03-44.48,8.48v-63.25h-8.2c-67.79,0-122.93,55.14-122.93,122.93,0,15.64,3.03,30.63,8.47,44.45l-63.24.03v8.2c0,67.79,55.14,122.93,122.93,122.93,15.65,0,30.66-3.03,44.49-8.48v63.26h8.2c67.79,0,122.93-55.14,122.93-122.93,0-15.65-3.03-30.65-8.48-44.48h63.25v-8.2ZM256.08,758.28v-54.57h0v-19.36c-5.15,3.63-10.64,6.79-16.39,9.47-13.59,6.34-28.64,9.99-44.49,9.99-55.99,0-102.02-43.41-106.23-98.34l116.84-.03v-16.39h-52.4c-6.33-13.58-9.98-28.61-9.98-44.45,0-55.99,43.41-102.02,98.34-106.23v107.1l8.04.14c35.1.64,66.15,18.64,85.13,45.57,3.63,5.15,6.79,10.64,9.48,16.39,6.34,13.59,9.99,28.63,9.99,44.48,0,55.99-43.41,102.02-98.34,106.23ZM354.32,591.17c-19.67-34.03-55.08-58.08-96.15-61.54v-26.81c13.59-6.34,28.63-9.99,44.48-9.99,55.99,0,102.02,43.41,106.23,98.34h-54.56Z"/>
  </g>
</svg>