<?xml version="1.0" encoding="UTF-8"?>
<svg id="uuid-868947b4-9177-4993-99a5-023ed631bde5" data-name="lanscape" xmlns="http://www.w3.org/2000/svg" width="42.33cm" height="42.33cm" viewBox="0 0 1200 1200">
  <defs>
    <style>
      .uuid-d35dae6d-c00a-439a-9b8d-dc58bbb69bf8 {
        fill: #fff;
      }
    </style>
  </defs>
  <g>
    <path class="uuid-d35dae6d-c00a-439a-9b8d-dc58bbb69bf8" d="M569.59,535.44c-5.43-2.4-11.94-3.61-19.35-3.61h-38.68c-.97,0-1.71.28-2.21.83-.53.56-.79,1.32-.79,2.33v99.42c0,.91.26,1.62.78,2.17.5.56,1.25.83,2.21.83h8.08c.97,0,1.72-.28,2.3-.85.57-.56.84-1.26.84-2.16v-38.56h27.46c7.41,0,13.92-1.21,19.35-3.61,5.41-2.38,9.66-5.95,12.64-10.62,2.99-4.68,4.51-10.63,4.51-17.7s-1.52-13.04-4.51-17.77c-2.98-4.71-7.23-8.31-12.64-10.7ZM566.7,578.9c-3.84,3.42-9.64,5.16-17.23,5.16h-26.84v-40.44h26.84c7.79,0,13.64,1.79,17.39,5.31,3.74,3.52,5.63,8.57,5.63,14.99s-1.95,11.57-5.79,14.98Z"/>
    <path class="uuid-d35dae6d-c00a-439a-9b8d-dc58bbb69bf8" d="M616.57,560.15c-.63-.62-1.36-.92-2.25-.92h-6.99c-.88,0-1.59.3-2.16.91-.56.61-.83,1.35-.83,2.25v72.01c0,.89.27,1.6.82,2.16.57.56,1.29.84,2.17.84h7.46c.88,0,1.63-.29,2.23-.85.61-.56.91-1.26.91-2.15v-44.77c0-5.58,1.64-10.07,4.88-13.36,3.2-3.28,7.68-4.94,13.29-4.94h9.12c.9,0,1.6-.25,2.19-.79.55-.51.83-1.21.83-2.07v-6.23c0-.86-.29-1.59-.85-2.17-.58-.57-1.27-.84-2.17-.84h-5.92c-4.97,0-9.25.85-12.72,2.54-3.44,1.66-6.19,4.21-8.16,7.57l-.93,1.58v-8.54c0-.86-.31-1.62-.92-2.24Z"/>
    <path class="uuid-d35dae6d-c00a-439a-9b8d-dc58bbb69bf8" d="M711.54,562.06c-5.11-2.88-11.49-4.34-18.96-4.34s-13.85,1.46-18.93,4.35c-5.05,2.87-9,6.91-11.75,12-2.74,5.06-4.28,11.03-4.57,17.74-.12,1.57-.17,3.62-.17,6.46s.06,4.97.17,6.58c.29,6.62,1.81,12.57,4.5,17.7,2.67,5.12,6.59,9.17,11.67,12.05,5.08,2.89,11.5,4.36,19.08,4.36s14.03-1.47,19.11-4.36c5.06-2.88,8.98-6.93,11.67-12.05,2.69-5.12,4.21-11.07,4.5-17.68.1-1.71.15-3.93.15-6.59s-.05-4.83-.15-6.45c-.29-6.67-1.83-12.64-4.58-17.75-2.74-5.06-6.69-9.1-11.75-11.99ZM714.24,604.15c-.3,7.78-2.39,13.8-6.2,17.88-3.84,4.09-9.04,6.17-15.46,6.17s-11.61-2.07-15.5-6.17c-3.86-4.05-5.93-10.07-6.16-17.91-.1-1.51-.15-3.47-.15-5.8s.05-4.29.15-5.82c.23-7.82,2.3-13.85,6.16-17.89,3.9-4.1,9.11-6.18,15.5-6.18s11.61,2.08,15.46,6.18c3.82,4.08,5.91,10.11,6.21,17.9.12,1.43.17,3.34.17,5.81s-.06,4.38-.18,5.83Z"/>
    <path class="uuid-d35dae6d-c00a-439a-9b8d-dc58bbb69bf8" d="M810.71,628.23c2.55-3.23,4.5-7.02,5.79-11.26,1.3-4.28,2.06-8.82,2.26-13.49.1-1.61.15-3.34.15-5.16s-.05-3.55-.15-5.15c-.2-4.79-.95-9.36-2.26-13.59-1.29-4.18-3.24-7.97-5.79-11.25-2.52-3.28-5.79-5.9-9.71-7.77-3.93-1.89-8.75-2.85-14.33-2.85-5.97,0-11,1.1-14.97,3.28-3.97,2.19-7.2,4.96-9.6,8.23l-.9,1.23v-8.22c0-.9-.28-1.6-.84-2.16-.55-.56-1.28-.85-2.15-.85h-7.01c-.85,0-1.58.29-2.15.85-.57.56-.84,1.26-.84,2.16v101.09c0,.89.28,1.59.84,2.16.57.56,1.27.83,2.15.83h7.48c.88,0,1.57-.27,2.06-.81.53-.59.79-1.31.79-2.18v-36.78l.89,1.15c2.47,3.18,5.72,5.87,9.66,8.01,3.92,2.14,8.83,3.22,14.6,3.22s10.4-.98,14.32-2.92c3.93-1.94,7.2-4.56,9.71-7.78ZM805.14,602.75c-.2,4.28-.98,8.35-2.31,12.11-1.34,3.79-3.58,6.89-6.64,9.21-3.07,2.34-7.35,3.52-12.72,3.52-4.85,0-8.94-1.16-12.16-3.44-3.19-2.26-5.63-5.19-7.25-8.72-1.59-3.53-2.45-7.12-2.55-10.7-.1-1.71-.15-3.71-.15-5.95s.05-4.19.15-5.82c.2-3.76,1.05-7.53,2.54-11.2,1.51-3.67,3.88-6.74,7.03-9.12,3.18-2.39,7.35-3.61,12.39-3.61,5.35,0,9.63,1.19,12.72,3.53,3.06,2.33,5.29,5.43,6.64,9.21,1.33,3.76,2.11,7.83,2.31,12.1.1,2.94.1,5.92,0,8.86Z"/>
    <path class="uuid-d35dae6d-c00a-439a-9b8d-dc58bbb69bf8" d="M904.77,596.95c0-7.92-1.37-14.92-4.07-20.79-2.66-5.86-6.62-10.45-11.75-13.65-5.12-3.18-11.56-4.79-19.14-4.79-6.77,0-12.76,1.46-17.79,4.34-5.02,2.89-9.04,7.05-11.93,12.37-2.89,5.33-4.55,11.64-4.95,18.75-.12,1.27-.17,2.88-.17,5.08s.06,3.83.17,5.05c.59,11.01,3.97,19.79,10.05,26.12,6.06,6.32,14.4,9.52,24.77,9.52,5.07,0,9.7-.68,13.77-2.03,4.04-1.35,7.47-3.09,10.21-5.18,2.69-2.05,4.83-4.19,6.36-6.36,1.46-2.07,2.24-3.85,2.34-5.31.09-.88-.13-1.49-.66-1.94-.56-.48-1.24-.73-2.03-.73h-7.46c-1.3,0-1.91.18-2.2.33-.43.2-1.08.9-1.96,2.06-.53.83-1.55,1.94-3.11,3.34-1.53,1.39-3.58,2.68-6.08,3.81-2.48,1.14-5.62,1.72-9.33,1.72-4.27,0-8.03-1.16-11.17-3.44-3.16-2.26-5.6-5.28-7.25-8.96-1.65-3.63-2.59-7.61-2.79-11.83v-1.89s53.18,0,53.18,0c.88,0,1.61-.26,2.16-.78.56-.51.83-1.24.83-2.22v-2.59ZM891.3,593.04h-42.71v-.96c0-4.62.84-8.78,2.5-12.39,1.64-3.62,4.07-6.53,7.24-8.66,3.17-2.13,7.03-3.21,11.48-3.21s8.31,1.08,11.53,3.21c3.24,2.14,5.73,5.05,7.41,8.66,1.69,3.57,2.55,7.74,2.55,12.39v.96Z"/>
    <path class="uuid-d35dae6d-c00a-439a-9b8d-dc58bbb69bf8" d="M934.36,530.3h-7.16c-.88,0-1.6.28-2.15.84-.57.57-.85,1.28-.85,2.17v101.09c0,.9.28,1.6.84,2.16.55.56,1.28.85,2.15.85h7.16c.97,0,1.71-.28,2.21-.83.53-.56.79-1.27.79-2.18v-101.09c0-.89-.26-1.61-.78-2.17-.5-.55-1.24-.83-2.21-.83Z"/>
    <path class="uuid-d35dae6d-c00a-439a-9b8d-dc58bbb69bf8" d="M971.36,530.3h-7.16c-.88,0-1.6.28-2.15.84-.57.57-.85,1.28-.85,2.17v101.09c0,.9.28,1.6.84,2.16.55.57,1.28.85,2.15.85h7.16c.97,0,1.71-.28,2.21-.83.53-.56.79-1.27.79-2.18v-101.09c0-.89-.26-1.61-.78-2.17-.5-.55-1.24-.83-2.21-.83Z"/>
    <path class="uuid-d35dae6d-c00a-439a-9b8d-dc58bbb69bf8" d="M1064.03,596.95c0-7.92-1.37-14.92-4.07-20.79-2.7-5.88-6.65-10.47-11.75-13.65-5.12-3.18-11.56-4.79-19.14-4.79-6.79,0-12.78,1.46-17.79,4.34-5.01,2.87-9.03,7.03-11.93,12.37-2.91,5.37-4.58,11.67-4.97,18.75-.1,1.32-.15,3.02-.15,5.08s.05,3.76.15,5.05c.61,11.01,4,19.79,10.07,26.11,6.06,6.32,14.4,9.52,24.77,9.52,5.07,0,9.7-.68,13.77-2.03,4.04-1.35,7.47-3.09,10.21-5.18,2.72-2.09,4.86-4.23,6.36-6.36,1.46-2.1,2.25-3.89,2.34-5.31.09-.88-.13-1.49-.66-1.94-.59-.49-1.25-.73-2.03-.73h-7.46c-1.04,0-1.79.11-2.23.33-.59.29-1.62,1.63-1.96,2.07-.48.8-1.5,1.91-3.08,3.33-1.56,1.39-3.6,2.68-6.07,3.81-2.48,1.14-5.62,1.72-9.33,1.72-4.26,0-8.02-1.16-11.2-3.44-3.14-2.26-5.58-5.28-7.25-8.96-1.64-3.65-2.57-7.63-2.77-11.83v-1.89s53.18,0,53.18,0c.86,0,1.59-.26,2.17-.79.56-.5.83-1.23.83-2.22v-2.59ZM1050.56,593.04h-42.71v-.96c0-4.65.83-8.82,2.47-12.39,1.67-3.63,4.11-6.54,7.26-8.66,3.17-2.13,7.03-3.21,11.48-3.21s8.31,1.08,11.53,3.21c3.2,2.12,5.69,5.03,7.41,8.65,1.69,3.57,2.55,7.74,2.55,12.39v.96Z"/>
    <path class="uuid-d35dae6d-c00a-439a-9b8d-dc58bbb69bf8" d="M1095.53,560.16c-.6-.61-1.35-.92-2.23-.92h-6.99c-.89,0-1.58.29-2.16.91-.56.62-.85,1.38-.85,2.25v72.01c0,.86.29,1.59.85,2.16.58.57,1.27.84,2.17.84h7.43c.9,0,1.62-.27,2.26-.86.61-.55.9-1.26.9-2.15v-44.77c0-5.57,1.63-10.06,4.85-13.36,3.23-3.28,7.71-4.95,13.32-4.95h9.12c.89,0,1.61-.26,2.19-.79.55-.51.83-1.21.83-2.07v-6.23c0-.86-.29-1.59-.85-2.17-.58-.56-1.29-.84-2.17-.84h-5.92c-4.97,0-9.25.85-12.72,2.54-3.44,1.66-6.19,4.21-8.16,7.57l-.93,1.58v-8.54c0-.87-.32-1.62-.94-2.23Z"/>
  </g>
  <path class="uuid-d35dae6d-c00a-439a-9b8d-dc58bbb69bf8" d="M247.89,774.47c67.51,0,122.43-54.92,122.43-122.43,0-15.17-2.84-30.07-8.45-44.3l-.27-.68h63.48v-7.7c0-67.51-54.92-122.43-122.43-122.43-15.17,0-30.08,2.84-44.3,8.44l-.68.27v-63.49h-7.7c-67.51,0-122.43,54.92-122.43,122.43,0,15.16,2.84,30.05,8.44,44.27l.27.68-63.48.03v7.7c0,67.51,54.92,122.43,122.43,122.43,15.17,0,30.08-2.84,44.31-8.45l.68-.27v63.49h7.69ZM257.67,502.5l.29-.13c14.27-6.66,29.31-10.04,44.69-10.04,27.11,0,52.99,10.19,72.87,28.71,19.78,18.42,31.8,43.31,33.85,70.1l.04.54h-55.39l-.14-.25c-20.25-35.03-56.05-57.95-95.76-61.3l-.46-.04v-27.59ZM239.91,694.27c-14.27,6.66-29.31,10.04-44.7,10.04-27.11,0-52.99-10.19-72.87-28.71-19.78-18.42-31.8-43.31-33.85-70.1l-.04-.54,116.88-.03v-15.39h-52.22l-.13-.29c-6.65-14.26-10.03-29.29-10.03-44.67,0-27.11,10.19-52.99,28.71-72.88,18.41-19.78,43.31-31.8,70.1-33.86l.54-.04v107.15l7.55.14c33.79.62,65.76,17.73,85.53,45.78,3.6,5.11,6.8,10.65,9.52,16.47,6.66,14.27,10.04,29.31,10.04,44.69,0,27.11-10.19,52.99-28.71,72.88-18.41,19.78-43.31,31.8-70.1,33.86l-.54.04v-73.52c-4.89,3.38-10.16,6.39-15.68,8.97Z"/>
</svg>